<svg width="1120" height="650" viewBox="0 0 1120 650" fill="none" xmlns="http://www.w3.org/2000/svg" role="img" aria-labelledby="title desc">
  <title id="title">Stride Workflow flow diagram</title>
  <desc id="desc">Stride Workflow starts with patch for tiny changes or spec for larger work, then implements changes through a worktree, builder worker, checks, reviewer worker, preview, manual testing, mend if needed, and land when approved. Current work is also surfaced as a milestone checklist that tracks the active phases.</desc>
  <defs>
    <filter id="shadow" x="-20%" y="-20%" width="140%" height="140%">
      <feDropShadow dx="0" dy="8" stdDeviation="8" flood-color="#14213D" flood-opacity="0.12"/>
    </filter>
    <marker id="arrow" markerWidth="12" markerHeight="12" refX="10" refY="6" orient="auto" markerUnits="strokeWidth">
      <path d="M2 2L10 6L2 10" fill="none" stroke="#3C4858" stroke-width="2" stroke-linecap="round" stroke-linejoin="round"/>
    </marker>
  </defs>

  <rect width="1120" height="650" rx="28" fill="#F7F3EA"/>
  <path d="M0 104C155 56 308 54 459 104C620 157 775 157 925 101C1000 73 1065 64 1120 73V0H0V104Z" fill="#E8F0EA"/>
  <path d="M0 556C126 592 270 592 431 556C618 514 795 521 963 576C1020 595 1073 604 1120 603V650H0V556Z" fill="#EAF0F7"/>

  <text x="64" y="74" fill="#17212B" font-family="ui-sans-serif, -apple-system, BlinkMacSystemFont, Segoe UI, sans-serif" font-size="36" font-weight="800">Stride Workflow</text>
  <text x="64" y="108" fill="#516173" font-family="ui-sans-serif, -apple-system, BlinkMacSystemFont, Segoe UI, sans-serif" font-size="17">Spec the work, build in an isolated checkout, review it, then land only after manual approval.</text>
  <text x="64" y="131" fill="#516173" font-family="ui-sans-serif, -apple-system, BlinkMacSystemFont, Segoe UI, sans-serif" font-size="16">Milestones stay visible as a checklist for the active phases, instead of disappearing when a step is done.</text>

  <g filter="url(#shadow)">
    <rect x="64" y="164" width="168" height="82" rx="14" fill="#FFFFFF"/>
    <text x="88" y="198" fill="#17212B" font-family="ui-sans-serif, -apple-system, BlinkMacSystemFont, Segoe UI, sans-serif" font-size="20" font-weight="800">$stride patch</text>
    <text x="88" y="225" fill="#5C6876" font-family="ui-sans-serif, -apple-system, BlinkMacSystemFont, Segoe UI, sans-serif" font-size="14">Tiny changes</text>
  </g>

  <g filter="url(#shadow)">
    <rect x="64" y="314" width="168" height="82" rx="14" fill="#FFFFFF"/>
    <text x="88" y="348" fill="#17212B" font-family="ui-sans-serif, -apple-system, BlinkMacSystemFont, Segoe UI, sans-serif" font-size="20" font-weight="800">$stride spec</text>
    <text x="88" y="375" fill="#5C6876" font-family="ui-sans-serif, -apple-system, BlinkMacSystemFont, Segoe UI, sans-serif" font-size="14">Probe and spec</text>
  </g>

  <g filter="url(#shadow)">
    <rect x="302" y="314" width="168" height="82" rx="14" fill="#FFFFFF"/>
    <text x="326" y="348" fill="#17212B" font-family="ui-sans-serif, -apple-system, BlinkMacSystemFont, Segoe UI, sans-serif" font-size="20" font-weight="800">Approval</text>
    <text x="326" y="375" fill="#5C6876" font-family="ui-sans-serif, -apple-system, BlinkMacSystemFont, Segoe UI, sans-serif" font-size="14">User says go</text>
  </g>

  <g filter="url(#shadow)">
    <rect x="540" y="314" width="168" height="82" rx="14" fill="#FFFFFF"/>
    <text x="564" y="348" fill="#17212B" font-family="ui-sans-serif, -apple-system, BlinkMacSystemFont, Segoe UI, sans-serif" font-size="20" font-weight="800">$stride impl</text>
    <text x="564" y="375" fill="#5C6876" font-family="ui-sans-serif, -apple-system, BlinkMacSystemFont, Segoe UI, sans-serif" font-size="14">Builder worker</text>
  </g>

  <g filter="url(#shadow)">
    <rect x="778" y="164" width="240" height="106" rx="14" fill="#FFFFFF"/>
    <text x="802" y="198" fill="#17212B" font-family="ui-sans-serif, -apple-system, BlinkMacSystemFont, Segoe UI, sans-serif" font-size="20" font-weight="800">Worktree</text>
    <text x="802" y="225" fill="#5C6876" font-family="ui-sans-serif, -apple-system, BlinkMacSystemFont, Segoe UI, sans-serif" font-size="14">Create isolated branch</text>
    <text x="802" y="248" fill="#5C6876" font-family="ui-sans-serif, -apple-system, BlinkMacSystemFont, Segoe UI, sans-serif" font-size="14">Run edits away from main</text>
  </g>

  <g filter="url(#shadow)">
    <rect x="778" y="314" width="240" height="106" rx="14" fill="#FFFFFF"/>
    <text x="802" y="348" fill="#17212B" font-family="ui-sans-serif, -apple-system, BlinkMacSystemFont, Segoe UI, sans-serif" font-size="20" font-weight="800">Check + Review</text>
    <text x="802" y="375" fill="#5C6876" font-family="ui-sans-serif, -apple-system, BlinkMacSystemFont, Segoe UI, sans-serif" font-size="14">Run project commands</text>
    <text x="802" y="398" fill="#5C6876" font-family="ui-sans-serif, -apple-system, BlinkMacSystemFont, Segoe UI, sans-serif" font-size="14">Reviewer worker pass</text>
  </g>

  <g filter="url(#shadow)">
    <rect x="540" y="492" width="220" height="96" rx="14" fill="#FFFFFF"/>
    <text x="564" y="526" fill="#17212B" font-family="ui-sans-serif, -apple-system, BlinkMacSystemFont, Segoe UI, sans-serif" font-size="20" font-weight="800">Preview + Handoff</text>
    <text x="564" y="553" fill="#5C6876" font-family="ui-sans-serif, -apple-system, BlinkMacSystemFont, Segoe UI, sans-serif" font-size="14">Start app from worktree</text>
    <text x="564" y="576" fill="#5C6876" font-family="ui-sans-serif, -apple-system, BlinkMacSystemFont, Segoe UI, sans-serif" font-size="14">Write manual test card</text>
  </g>

  <g filter="url(#shadow)">
    <rect x="810" y="492" width="208" height="96" rx="14" fill="#FFFFFF"/>
    <text x="834" y="526" fill="#17212B" font-family="ui-sans-serif, -apple-system, BlinkMacSystemFont, Segoe UI, sans-serif" font-size="20" font-weight="800">Manual Test</text>
    <text x="834" y="553" fill="#5C6876" font-family="ui-sans-serif, -apple-system, BlinkMacSystemFont, Segoe UI, sans-serif" font-size="14">User judges the result</text>
    <text x="834" y="576" fill="#5C6876" font-family="ui-sans-serif, -apple-system, BlinkMacSystemFont, Segoe UI, sans-serif" font-size="14">Mend or land next</text>
  </g>

  <g filter="url(#shadow)">
    <rect x="64" y="492" width="176" height="96" rx="14" fill="#FFFFFF"/>
    <text x="88" y="526" fill="#17212B" font-family="ui-sans-serif, -apple-system, BlinkMacSystemFont, Segoe UI, sans-serif" font-size="20" font-weight="800">$stride kit ui</text>
    <text x="88" y="553" fill="#5C6876" font-family="ui-sans-serif, -apple-system, BlinkMacSystemFont, Segoe UI, sans-serif" font-size="14">UI audit</text>
    <text x="88" y="576" fill="#5C6876" font-family="ui-sans-serif, -apple-system, BlinkMacSystemFont, Segoe UI, sans-serif" font-size="14">Components + tokens</text>
  </g>

  <g filter="url(#shadow)">
    <rect x="302" y="492" width="168" height="96" rx="14" fill="#FFFFFF"/>
    <text x="326" y="526" fill="#17212B" font-family="ui-sans-serif, -apple-system, BlinkMacSystemFont, Segoe UI, sans-serif" font-size="20" font-weight="800">$stride mend</text>
    <text x="326" y="553" fill="#5C6876" font-family="ui-sans-serif, -apple-system, BlinkMacSystemFont, Segoe UI, sans-serif" font-size="14">Fix manual-test</text>
    <text x="326" y="576" fill="#5C6876" font-family="ui-sans-serif, -apple-system, BlinkMacSystemFont, Segoe UI, sans-serif" font-size="14">issues in worktree</text>
  </g>

  <g filter="url(#shadow)">
    <rect x="302" y="164" width="168" height="82" rx="14" fill="#FFFFFF"/>
    <text x="326" y="198" fill="#17212B" font-family="ui-sans-serif, -apple-system, BlinkMacSystemFont, Segoe UI, sans-serif" font-size="20" font-weight="800">$stride land</text>
    <text x="326" y="225" fill="#5C6876" font-family="ui-sans-serif, -apple-system, BlinkMacSystemFont, Segoe UI, sans-serif" font-size="14">Commit, push, PR</text>
  </g>

  <path d="M232 355H294" stroke="#3C4858" stroke-width="2.5" marker-end="url(#arrow)"/>
  <path d="M470 355H532" stroke="#3C4858" stroke-width="2.5" marker-end="url(#arrow)"/>
  <path d="M708 347C752 322 759 264 779 235" stroke="#3C4858" stroke-width="2.5" marker-end="url(#arrow)"/>
  <path d="M898 270V306" stroke="#3C4858" stroke-width="2.5" marker-end="url(#arrow)"/>
  <path d="M778 399C728 433 693 457 669 484" stroke="#3C4858" stroke-width="2.5" marker-end="url(#arrow)"/>
  <path d="M760 540H802" stroke="#3C4858" stroke-width="2.5" marker-end="url(#arrow)"/>
  <path d="M834 492C798 456 777 443 736 417" stroke="#3C4858" stroke-width="2.5" stroke-dasharray="7 8" marker-end="url(#arrow)"/>
  <path d="M810 523C682 464 560 458 478 516" stroke="#3C4858" stroke-width="2.5" stroke-dasharray="7 8" marker-end="url(#arrow)"/>
  <path d="M810 502C695 303 561 221 479 205" stroke="#3C4858" stroke-width="2.5" marker-end="url(#arrow)"/>
  <path d="M240 540H294" stroke="#3C4858" stroke-width="2.5" marker-end="url(#arrow)"/>
  <path d="M470 540H532" stroke="#3C4858" stroke-width="2.5" marker-end="url(#arrow)"/>
  <path d="M232 205H294" stroke="#3C4858" stroke-width="2.5" marker-end="url(#arrow)"/>

  <text x="64" y="620" fill="#6B7480" font-family="ui-sans-serif, -apple-system, BlinkMacSystemFont, Segoe UI, sans-serif" font-size="13">Solid arrows show the happy path. Dashed arrows show manual-test fixes that loop back through mend and verification.</text>
</svg>
